<?xml version="1.0" encoding="UTF-8" standalone="no"?>
<svg
   version="1.1"
   id="mdi-linkedin"
   width="18"
   height="18"
   viewBox="0 0 18 18"
   sodipodi:docname="linkedin-icon.svg"
   inkscape:version="1.4.3 (0d15f75, 2025-12-25)"
   xmlns:inkscape="http://www.inkscape.org/namespaces/inkscape"
   xmlns:sodipodi="http://sodipodi.sourceforge.net/DTD/sodipodi-0.dtd"
   xmlns="http://www.w3.org/2000/svg"
   xmlns:svg="http://www.w3.org/2000/svg">
  <defs
     id="defs1" />
  <sodipodi:namedview
     id="namedview1"
     pagecolor="#505050"
     bordercolor="#ffffff"
     borderopacity="1"
     inkscape:showpageshadow="0"
     inkscape:pageopacity="0"
     inkscape:pagecheckerboard="1"
     inkscape:deskcolor="#505050"
     inkscape:zoom="16.104167"
     inkscape:cx="-10.556274"
     inkscape:cy="3.3842173"
     inkscape:window-width="1920"
     inkscape:window-height="991"
     inkscape:window-x="-9"
     inkscape:window-y="-9"
     inkscape:window-maximized="1"
     inkscape:current-layer="mdi-linkedin" />
  <path
   fill="#3B0154"
     d="m 16,0 a 2,2 0 0 1 2,2 v 14 a 2,2 0 0 1 -2,2 H 2 A 2,2 0 0 1 0,16 V 2 A 2,2 0 0 1 2,0 H 16 M 15.5,15.5 V 10.2 A 3.26,3.26 0 0 0 12.24,6.94 c -0.85,0 -1.84,0.52 -2.32,1.3 V 7.13 H 7.13 v 8.37 h 2.79 v -4.93 c 0,-0.77 0.62,-1.4 1.39,-1.4 a 1.4,1.4 0 0 1 1.4,1.4 V 15.5 H 15.5 M 3.88,5.56 A 1.68,1.68 0 0 0 5.56,3.88 C 5.56,2.95 4.81,2.19 3.88,2.19 A 1.69,1.69 0 0 0 2.19,3.88 c 0,0.93 0.76,1.68 1.69,1.68 M 5.27,15.5 V 7.13 H 2.5 v 8.37 z"
     id="path1" />
</svg>
