<?xml version="1.0" encoding="UTF-8" standalone="no"?>
<!-- Created with Inkscape (http://www.inkscape.org/) -->

<svg
   version="1.1"
   id="svg1"
   width="800"
   height="800"
   viewBox="0 0 800 800"
   sodipodi:docname="truck-unloading-goods.svg"
   inkscape:version="1.3.2 (091e20e, 2023-11-25, custom)"
   xmlns:inkscape="http://www.inkscape.org/namespaces/inkscape"
   xmlns:sodipodi="http://sodipodi.sourceforge.net/DTD/sodipodi-0.dtd"
   xmlns="http://www.w3.org/2000/svg"
   xmlns:svg="http://www.w3.org/2000/svg">
  <defs
     id="defs1">
    <clipPath
       clipPathUnits="userSpaceOnUse"
       id="clipPath4">
      <path
         d="M 0,600 H 600 V 0 H 0 Z"
         transform="translate(-298.6582,-166.9287)"
         id="path4" />
    </clipPath>
    <clipPath
       clipPathUnits="userSpaceOnUse"
       id="clipPath6">
      <path
         d="M 0,600 H 600 V 0 H 0 Z"
         transform="translate(-206.644,-169.4287)"
         id="path6" />
    </clipPath>
    <clipPath
       clipPathUnits="userSpaceOnUse"
       id="clipPath8">
      <path
         d="M 0,600 H 600 V 0 H 0 Z"
         transform="translate(-346.65631,-169.4287)"
         id="path8" />
    </clipPath>
    <clipPath
       clipPathUnits="userSpaceOnUse"
       id="clipPath10">
      <path
         d="M 0,600 H 600 V 0 H 0 Z"
         transform="translate(-372.35641,-169.4287)"
         id="path10" />
    </clipPath>
    <clipPath
       clipPathUnits="userSpaceOnUse"
       id="clipPath12">
      <path
         d="M 0,600 H 600 V 0 H 0 Z"
         transform="translate(-232.34421,-243.67291)"
         id="path12" />
    </clipPath>
    <clipPath
       clipPathUnits="userSpaceOnUse"
       id="clipPath14">
      <path
         d="M 0,600 H 600 V 0 H 0 Z"
         id="path14" />
    </clipPath>
    <clipPath
       clipPathUnits="userSpaceOnUse"
       id="clipPath16">
      <path
         d="M 0,600 H 600 V 0 H 0 Z"
         id="path16" />
    </clipPath>
    <clipPath
       clipPathUnits="userSpaceOnUse"
       id="clipPath18">
      <path
         d="M 0,600 H 600 V 0 H 0 Z"
         transform="translate(-366.64451,-169.4287)"
         id="path18" />
    </clipPath>
    <clipPath
       clipPathUnits="userSpaceOnUse"
       id="clipPath20">
      <path
         d="M 0,600 H 600 V 0 H 0 Z"
         id="path20" />
    </clipPath>
    <clipPath
       clipPathUnits="userSpaceOnUse"
       id="clipPath22">
      <path
         d="M 0,600 H 600 V 0 H 0 Z"
         id="path22" />
    </clipPath>
    <clipPath
       clipPathUnits="userSpaceOnUse"
       id="clipPath24">
      <path
         d="M 0,600 H 600 V 0 H 0 Z"
         transform="translate(-506.65631,-169.4287)"
         id="path24" />
    </clipPath>
    <clipPath
       clipPathUnits="userSpaceOnUse"
       id="clipPath26">
      <path
         d="M 0,600 H 600 V 0 H 0 Z"
         transform="translate(-532.35451,-169.4287)"
         id="path26" />
    </clipPath>
    <clipPath
       clipPathUnits="userSpaceOnUse"
       id="clipPath28">
      <path
         d="M 0,600 H 600 V 0 H 0 Z"
         transform="translate(-494.51861,-412.86131)"
         id="path28" />
    </clipPath>
    <clipPath
       clipPathUnits="userSpaceOnUse"
       id="clipPath30">
      <path
         d="M 0,600 H 600 V 0 H 0 Z"
         transform="translate(-569.33981,-326.41501)"
         id="path30" />
    </clipPath>
    <clipPath
       clipPathUnits="userSpaceOnUse"
       id="clipPath32">
      <path
         d="M 0,600 H 600 V 0 H 0 Z"
         transform="translate(-555.06451,-365.66551)"
         id="path32" />
    </clipPath>
    <clipPath
       clipPathUnits="userSpaceOnUse"
       id="clipPath34">
      <path
         d="M 0,600 H 600 V 0 H 0 Z"
         transform="translate(-342.81841,-434.63821)"
         id="path34" />
    </clipPath>
    <clipPath
       clipPathUnits="userSpaceOnUse"
       id="clipPath36">
      <path
         d="M 0,600 H 600 V 0 H 0 Z"
         transform="translate(-392.34471,-243.67291)"
         id="path36" />
    </clipPath>
    <clipPath
       clipPathUnits="userSpaceOnUse"
       id="clipPath38">
      <path
         d="M 0,600 H 600 V 0 H 0 Z"
         transform="translate(-532.35451,-183.834)"
         id="path38" />
    </clipPath>
    <clipPath
       clipPathUnits="userSpaceOnUse"
       id="clipPath40">
      <path
         d="M 0,600 H 600 V 0 H 0 Z"
         transform="translate(-532.35451,-191.48931)"
         id="path40" />
    </clipPath>
    <clipPath
       clipPathUnits="userSpaceOnUse"
       id="clipPath42">
      <path
         d="M 0,600 H 600 V 0 H 0 Z"
         transform="translate(-392.34471,-229.26661)"
         id="path42" />
    </clipPath>
    <clipPath
       clipPathUnits="userSpaceOnUse"
       id="clipPath44">
      <path
         d="M 0,600 H 600 V 0 H 0 Z"
         transform="translate(-392.34471,-221.60941)"
         id="path44" />
    </clipPath>
    <clipPath
       clipPathUnits="userSpaceOnUse"
       id="clipPath46">
      <path
         d="M 0,600 H 600 V 0 H 0 Z"
         transform="translate(-575.00881,-254.1973)"
         id="path46" />
    </clipPath>
    <clipPath
       clipPathUnits="userSpaceOnUse"
       id="clipPath48">
      <path
         d="M 0,600 H 600 V 0 H 0 Z"
         id="path48" />
    </clipPath>
    <clipPath
       clipPathUnits="userSpaceOnUse"
       id="clipPath50">
      <path
         d="M 0,600 H 600 V 0 H 0 Z"
         id="path50" />
    </clipPath>
    <clipPath
       clipPathUnits="userSpaceOnUse"
       id="clipPath52">
      <path
         d="M 0,600 H 600 V 0 H 0 Z"
         id="path52" />
    </clipPath>
    <clipPath
       clipPathUnits="userSpaceOnUse"
       id="clipPath54">
      <path
         d="M 0,600 H 600 V 0 H 0 Z"
         id="path54" />
    </clipPath>
    <clipPath
       clipPathUnits="userSpaceOnUse"
       id="clipPath56">
      <path
         d="M 0,600 H 600 V 0 H 0 Z"
         id="path56" />
    </clipPath>
    <clipPath
       clipPathUnits="userSpaceOnUse"
       id="clipPath58">
      <path
         d="M 0,600 H 600 V 0 H 0 Z"
         id="path58" />
    </clipPath>
    <clipPath
       clipPathUnits="userSpaceOnUse"
       id="clipPath60">
      <path
         d="M 0,600 H 600 V 0 H 0 Z"
         id="path60" />
    </clipPath>
    <clipPath
       clipPathUnits="userSpaceOnUse"
       id="clipPath62">
      <path
         d="M 0,600 H 600 V 0 H 0 Z"
         id="path62" />
    </clipPath>
    <clipPath
       clipPathUnits="userSpaceOnUse"
       id="clipPath64">
      <path
         d="M 0,600 H 600 V 0 H 0 Z"
         id="path64" />
    </clipPath>
    <clipPath
       clipPathUnits="userSpaceOnUse"
       id="clipPath66">
      <path
         d="M 0,600 H 600 V 0 H 0 Z"
         transform="translate(-342.81841,-356.38331)"
         id="path66" />
    </clipPath>
    <clipPath
       clipPathUnits="userSpaceOnUse"
       id="clipPath68">
      <path
         d="M 0,600 H 600 V 0 H 0 Z"
         id="path68" />
    </clipPath>
    <clipPath
       clipPathUnits="userSpaceOnUse"
       id="clipPath70">
      <path
         d="M 0,600 H 600 V 0 H 0 Z"
         transform="translate(-557.48731,-333.89651)"
         id="path70" />
    </clipPath>
    <clipPath
       clipPathUnits="userSpaceOnUse"
       id="clipPath72">
      <path
         d="M 0,600 H 600 V 0 H 0 Z"
         transform="translate(-545.93261,-365.66551)"
         id="path72" />
    </clipPath>
    <clipPath
       clipPathUnits="userSpaceOnUse"
       id="clipPath74">
      <path
         d="M 0,600 H 600 V 0 H 0 Z"
         transform="translate(-580.19921,-385.11961)"
         id="path74" />
    </clipPath>
    <clipPath
       clipPathUnits="userSpaceOnUse"
       id="clipPath76">
      <path
         d="M 0,600 H 600 V 0 H 0 Z"
         transform="translate(-580.45312,-382.79881)"
         id="path76" />
    </clipPath>
    <clipPath
       clipPathUnits="userSpaceOnUse"
       id="clipPath78">
      <path
         d="M 0,600 H 600 V 0 H 0 Z"
         id="path78" />
    </clipPath>
    <clipPath
       clipPathUnits="userSpaceOnUse"
       id="clipPath80">
      <path
         d="M 0,600 H 600 V 0 H 0 Z"
         id="path80" />
    </clipPath>
    <clipPath
       clipPathUnits="userSpaceOnUse"
       id="clipPath82">
      <path
         d="M 0,600 H 600 V 0 H 0 Z"
         id="path82" />
    </clipPath>
    <clipPath
       clipPathUnits="userSpaceOnUse"
       id="clipPath84">
      <path
         d="M 0,600 H 600 V 0 H 0 Z"
         id="path84" />
    </clipPath>
    <clipPath
       clipPathUnits="userSpaceOnUse"
       id="clipPath86">
      <path
         d="M 0,600 H 600 V 0 H 0 Z"
         id="path86" />
    </clipPath>
    <clipPath
       clipPathUnits="userSpaceOnUse"
       id="clipPath88">
      <path
         d="M 0,600 H 600 V 0 H 0 Z"
         id="path88" />
    </clipPath>
    <clipPath
       clipPathUnits="userSpaceOnUse"
       id="clipPath90">
      <path
         d="M 0,600 H 600 V 0 H 0 Z"
         id="path90" />
    </clipPath>
    <clipPath
       clipPathUnits="userSpaceOnUse"
       id="clipPath92">
      <path
         d="M 0,600 H 600 V 0 H 0 Z"
         id="path92" />
    </clipPath>
    <clipPath
       clipPathUnits="userSpaceOnUse"
       id="clipPath94">
      <path
         d="M 0,600 H 600 V 0 H 0 Z"
         id="path94" />
    </clipPath>
  </defs>
  <sodipodi:namedview
     id="namedview1"
     pagecolor="#ffffff"
     bordercolor="#000000"
     borderopacity="0.25"
     inkscape:showpageshadow="2"
     inkscape:pageopacity="0.0"
     inkscape:pagecheckerboard="0"
     inkscape:deskcolor="#d1d1d1"
     inkscape:zoom="0.7625"
     inkscape:cx="399.34426"
     inkscape:cy="400"
     inkscape:window-width="1440"
     inkscape:window-height="830"
     inkscape:window-x="-6"
     inkscape:window-y="-6"
     inkscape:window-maximized="1"
     inkscape:current-layer="g1">
    <inkscape:page
       x="0"
       y="0"
       inkscape:label="1"
       id="page1"
       width="800"
       height="800"
       margin="222.57201 6.3773332 220.48267 5.9693866"
       bleed="0" />
  </sodipodi:namedview>
  <g
     id="g1"
     inkscape:groupmode="layer"
     inkscape:label="1">
    <g
       id="group-MC0">
      <path
         id="path2"
         d="m 558.362,374.411 h 23.11 v 3.748 h -23.11 z"
         style="fill:#f09870;fill-opacity:1;fill-rule:evenodd;stroke:none"
         transform="matrix(1.3333333,0,0,-1.3333333,0,800)" />
      <path
         id="path3"
         d="M 0,0 C 162.026,0 294.177,1.124 294.177,2.5 294.177,3.874 162.026,4.998 0,4.998 -162.029,4.998 -294.181,3.874 -294.181,2.5 -294.181,1.124 -162.029,0 0,0"
         style="fill:#2d2b2d;fill-opacity:1;fill-rule:evenodd;stroke:none"
         transform="matrix(1.3333333,0,0,-1.3333333,398.21093,577.4284)"
         clip-path="url(#clipPath4)" />
      <path
         id="path5"
         d="m 0,0 c -10.448,0 -18.917,16.618 -18.917,37.12 0,20.501 8.469,37.124 18.917,37.124 H 25.7 V 0 Z"
         style="fill:#2d2b2d;fill-opacity:1;fill-rule:evenodd;stroke:none"
         transform="matrix(1.3333333,0,0,-1.3333333,275.52533,574.09507)"
         clip-path="url(#clipPath6)" />
      <path
         id="path7"
         d="m 0,0 c -10.448,0 -18.917,16.618 -18.917,37.12 0,20.501 8.469,37.124 18.917,37.124 H 25.7 V 0 Z"
         style="fill:#2d2b2d;fill-opacity:1;fill-rule:evenodd;stroke:none"
         transform="matrix(1.3333333,0,0,-1.3333333,462.2084,574.09507)"
         clip-path="url(#clipPath8)" />
      <path
         id="path9"
         d="m 0,0 c 10.419,0 18.919,16.676 18.919,37.12 0,20.446 -8.5,37.124 -18.919,37.124 -10.418,0 -18.917,-16.678 -18.917,-37.124 C -18.917,16.676 -10.418,0 0,0"
         style="fill:#2d2b2d;fill-opacity:1;fill-rule:evenodd;stroke:none"
         transform="matrix(1.3333333,0,0,-1.3333333,496.4752,574.09507)"
         clip-path="url(#clipPath10)" />
      <path
         id="path11"
         d="m 0,0 c 10.448,0 18.919,-16.623 18.919,-37.124 0,-20.502 -8.471,-37.12 -18.919,-37.12 -10.448,0 -18.917,16.618 -18.917,37.12 C -18.917,-16.623 -10.448,0 0,0"
         style="fill:#2d2b2d;fill-opacity:1;fill-rule:evenodd;stroke:none"
         transform="matrix(1.3333333,0,0,-1.3333333,309.79227,475.1028)"
         clip-path="url(#clipPath12)" />
      <path
         id="path13"
         d="m 498.805,216.187 h 72.814 v 62.822 h -72.814 z"
         style="fill:#782619;fill-opacity:1;fill-rule:evenodd;stroke:none"
         transform="matrix(1.3333333,0,0,-1.3333333,0,800)"
         clip-path="url(#clipPath14)" />
      <path
         id="path15"
         d="m 425.54,216.187 h -72.818 v 62.822 h 72.818 z"
         style="fill:#782619;fill-opacity:1;fill-rule:evenodd;stroke:none"
         transform="matrix(1.3333333,0,0,-1.3333333,0,800)"
         clip-path="url(#clipPath16)" />
      <path
         id="path17"
         d="m 0,0 c -10.452,0 -18.919,16.618 -18.919,37.12 0,20.501 8.467,37.124 18.919,37.124 H 25.7 V 0 Z"
         style="fill:#46454b;fill-opacity:1;fill-rule:evenodd;stroke:none"
         transform="matrix(1.3333333,0,0,-1.3333333,488.85933,574.09507)"
         clip-path="url(#clipPath18)" />
      <path
         id="path19"
         d="M 161.492,216.187 H 355.669 V 434.638 H 161.492 Z"
         style="fill:#d64520;fill-opacity:1;fill-rule:evenodd;stroke:none"
         transform="matrix(1.3333333,0,0,-1.3333333,0,800)"
         clip-path="url(#clipPath20)" />
      <path
         id="path21"
         d="M 172.017,226.713 H 332.293 V 424.112 H 172.017 Z"
         style="fill:#2d2b2d;fill-opacity:1;fill-rule:evenodd;stroke:none"
         transform="matrix(1.3333333,0,0,-1.3333333,0,800)"
         clip-path="url(#clipPath22)" />
      <path
         id="path23"
         d="m 0,0 c -10.45,0 -18.919,16.618 -18.919,37.12 0,20.501 8.469,37.124 18.919,37.124 H 25.702 V 0 Z"
         style="fill:#46454b;fill-opacity:1;fill-rule:evenodd;stroke:none"
         transform="matrix(1.3333333,0,0,-1.3333333,675.54173,574.09507)"
         clip-path="url(#clipPath24)" />
      <path
         id="path25"
         d="m 0,0 c 10.419,0 18.919,16.676 18.919,37.12 0,20.446 -8.5,37.124 -18.919,37.124 -10.418,0 -18.917,-16.678 -18.917,-37.124 C -18.917,16.676 -10.418,0 0,0"
         style="fill:#2d2b2d;fill-opacity:1;fill-rule:evenodd;stroke:none"
         transform="matrix(1.3333333,0,0,-1.3333333,709.806,574.09507)"
         clip-path="url(#clipPath26)" />
      <path
         id="path27"
         d="m 0,0 h 40.335 c 9.391,0 17.387,-5.598 20.601,-14.423 l 24.112,-66.205 c 4.596,-12.613 6.618,-24.088 6.618,-37.509 v -78.537 h -28.75 c -2.573,19.611 -12.825,34.268 -25.076,34.268 -12.257,0 -22.509,-14.657 -25.079,-34.268 h -36.946 z"
         style="fill:#f09870;fill-opacity:1;fill-rule:evenodd;stroke:none"
         transform="matrix(1.3333333,0,0,-1.3333333,659.35813,249.51827)"
         clip-path="url(#clipPath28)" />
      <path
         id="path29"
         d="m 0,0 c -0.212,0.617 -0.432,1.235 -0.658,1.856 l -24.11,66.205 c -1.548,4.25 -5.196,6.803 -9.718,6.803 H -59.3 L -59.3,0 Z"
         style="fill:#688bb7;fill-opacity:1;fill-rule:evenodd;stroke:none"
         transform="matrix(1.3333333,0,0,-1.3333333,759.11973,364.78)"
         clip-path="url(#clipPath30)" />
      <path
         id="path31"
         d="M 0,0 -7.279,19.989 H -45.025 L -45.025,0 Z M 8.448,-23.201 3.9,-10.707 h -48.925 v -12.494 z"
         style="fill:#90aed3;fill-opacity:1;fill-rule:evenodd;stroke:none"
         transform="matrix(1.3333333,0,0,-1.3333333,740.086,312.446)"
         clip-path="url(#clipPath32)" />
      <path
         id="path33"
         d="M 0,0 H 151.7 V -218.451 H 74.602 c -2.573,19.611 -12.823,34.268 -25.076,34.268 -12.256,0 -22.506,-14.657 -25.079,-34.268 H 0 Z"
         style="fill:#e9541e;fill-opacity:1;fill-rule:evenodd;stroke:none"
         transform="matrix(1.3333333,0,0,-1.3333333,457.0912,220.4824)"
         clip-path="url(#clipPath34)" />
      <path
         id="path35"
         d="m 0,0 c 10.446,0 18.917,-16.623 18.917,-37.124 0,-20.502 -8.471,-37.12 -18.917,-37.12 -10.45,0 -18.919,16.618 -18.919,37.12 C -18.919,-16.623 -10.45,0 0,0"
         style="fill:#2d2b2d;fill-opacity:1;fill-rule:evenodd;stroke:none"
         transform="matrix(1.3333333,0,0,-1.3333333,523.12627,475.1028)"
         clip-path="url(#clipPath36)" />
      <path
         id="path37"
         d="m 0,0 c 6.377,0 11.577,10.203 11.577,22.715 0,12.511 -5.2,22.718 -11.577,22.718 -6.376,0 -11.574,-10.207 -11.574,-22.718 C -11.574,10.203 -6.376,0 0,0"
         style="fill:#bcb8c2;fill-opacity:1;fill-rule:evenodd;stroke:none"
         transform="matrix(1.3333333,0,0,-1.3333333,709.806,554.888)"
         clip-path="url(#clipPath38)" />
      <path
         id="path39"
         d="M 0,0 C 4.229,0 7.676,6.766 7.676,15.06 7.676,23.356 4.229,30.12 0,30.12 -4.227,30.12 -7.673,23.356 -7.673,15.06 -7.673,6.766 -4.227,0 0,0"
         style="fill:#9c9aa2;fill-opacity:1;fill-rule:evenodd;stroke:none"
         transform="matrix(1.3333333,0,0,-1.3333333,709.806,544.68093)"
         clip-path="url(#clipPath40)" />
      <path
         id="path41"
         d="M 0,0 C 6.391,0 11.743,-9.483 11.575,-22.718 11.406,-35.95 6.331,-45.684 0,-45.433 -6.333,-45.181 -11.577,-35.264 -11.577,-22.718 -11.577,-10.171 -6.395,0 0,0"
         style="fill:#bcb8c2;fill-opacity:1;fill-rule:evenodd;stroke:none"
         transform="matrix(1.3333333,0,0,-1.3333333,523.12627,494.3112)"
         clip-path="url(#clipPath42)" />
      <path
         id="path43"
         d="m 0,0 c 4.238,0 7.672,-6.742 7.672,-15.061 0,-8.316 -3.434,-15.058 -7.672,-15.058 -4.24,0 -7.678,6.742 -7.678,15.058 C -7.678,-6.742 -4.24,0 0,0"
         style="fill:#9c9aa2;fill-opacity:1;fill-rule:evenodd;stroke:none"
         transform="matrix(1.3333333,0,0,-1.3333333,523.12627,504.5208)"
         clip-path="url(#clipPath44)" />
      <path
         id="path45"
         d="m 0,0 h 8.567 c 4.713,0 8.567,-3.855 8.567,-8.567 v -24.63 c 0,-4.71 -3.854,-8.566 -8.567,-8.566 H 0 c -4.711,0 -8.566,3.856 -8.566,8.566 v 24.63 C -8.566,-3.855 -4.711,0 0,0"
         style="fill:#fbccb7;fill-opacity:1;fill-rule:evenodd;stroke:none"
         transform="matrix(1.3333333,0,0,-1.3333333,766.6784,461.07027)"
         clip-path="url(#clipPath46)" />
      <path
         id="path47"
         d="m 172.017,380.736 h 160.276 v 43.376 H 172.017 Z"
         style="fill:#f6e2db;fill-opacity:1;fill-rule:evenodd;stroke:none"
         transform="matrix(1.3333333,0,0,-1.3333333,0,800)"
         clip-path="url(#clipPath48)" />
      <path
         id="path49"
         d="M 332.293,413.268 H 172.018 v -2.895 h 160.275 z m 0,-10.844 H 172.018 v -2.896 h 160.275 z m 0,-10.845 H 172.018 v -2.895 h 160.275 z m 0,32.533 H 172.018 v -2.896 h 160.275 z"
         style="fill:#ecc8b7;fill-opacity:1;fill-rule:evenodd;stroke:none"
         transform="matrix(1.3333333,0,0,-1.3333333,0,800)"
         clip-path="url(#clipPath50)" />
      <path
         id="path51"
         d="m 171.864,226.713 h 4.084 v 197.399 h -4.084 z"
         style="fill:#bb3921;fill-opacity:1;fill-rule:evenodd;stroke:none"
         transform="matrix(1.3333333,0,0,-1.3333333,0,800)"
         clip-path="url(#clipPath52)" />
      <path
         id="path53"
         d="m 175.948,380.736 h 7.081 v 43.376 h -7.081 z"
         style="fill:#ecc8b7;fill-opacity:1;fill-rule:evenodd;stroke:none"
         transform="matrix(1.3333333,0,0,-1.3333333,0,800)"
         clip-path="url(#clipPath54)" />
      <path
         id="path55"
         d="m 183.03,388.684 h -7.081 v 2.895 h 7.081 z m 0,10.844 h -7.081 v 2.896 h 7.081 z m 0,10.844 h -7.081 v 2.895 h 7.081 z m 0,13.74 h -7.081 v -2.896 h 7.081 z"
         style="fill:#d9ab97;fill-opacity:1;fill-rule:evenodd;stroke:none"
         transform="matrix(1.3333333,0,0,-1.3333333,0,800)"
         clip-path="url(#clipPath56)" />
      <path
         id="path57"
         d="m 188.43,226.713 h 68.315 v 82.556 H 188.43 Z"
         style="fill:#f9cc78;fill-opacity:1;fill-rule:evenodd;stroke:none"
         transform="matrix(1.3333333,0,0,-1.3333333,0,800)"
         clip-path="url(#clipPath58)" />
      <path
         id="path59"
         d="m 253.037,226.713 h 60.518 v 82.556 h -60.518 z"
         style="fill:#e1a04a;fill-opacity:1;fill-rule:evenodd;stroke:none"
         transform="matrix(1.3333333,0,0,-1.3333333,0,800)"
         clip-path="url(#clipPath60)" />
      <path
         id="path61"
         d="m 266.244,226.713 h 56.892 v 65.423 h -56.892 z"
         style="fill:#f9cc78;fill-opacity:1;fill-rule:evenodd;stroke:none"
         transform="matrix(1.3333333,0,0,-1.3333333,0,800)"
         clip-path="url(#clipPath62)" />
      <path
         id="path63"
         d="m 319.605,226.713 h 12.688 v 65.423 h -12.688 z"
         style="fill:#e1a04a;fill-opacity:1;fill-rule:evenodd;stroke:none"
         transform="matrix(1.3333333,0,0,-1.3333333,0,800)"
         clip-path="url(#clipPath64)" />
      <path
         id="path65"
         d="m 0,0 h 52.914 c 4.925,14.569 13.359,24.177 22.938,24.177 9.577,0 18.01,-9.608 22.937,-24.177 H 151.7 V -59.608 H 98.789 c -4.927,-14.568 -13.36,-24.177 -22.937,-24.177 -9.579,0 -18.013,9.609 -22.938,24.177 H 0 Z"
         style="fill:#b13e20;fill-opacity:1;fill-rule:evenodd;stroke:none"
         transform="matrix(1.3333333,0,0,-1.3333333,457.0912,324.82227)"
         clip-path="url(#clipPath66)" />
      <path
         id="path67"
         d="m 494.519,216.187 h 7.311 v 196.674 h -7.311 z"
         style="fill:#e68457;fill-opacity:1;fill-rule:evenodd;stroke:none"
         transform="matrix(1.3333333,0,0,-1.3333333,0,800)"
         clip-path="url(#clipPath68)" />
      <path
         id="path69"
         d="m 0,0 c -0.17,0.495 -0.345,0.989 -0.525,1.484 l -19.292,52.974 c -1.24,3.4 -4.158,5.444 -7.777,5.444 H -47.447 V 0 Z"
         style="fill:#90aed3;fill-opacity:1;fill-rule:evenodd;stroke:none"
         transform="matrix(1.3333333,0,0,-1.3333333,743.3164,354.80467)"
         clip-path="url(#clipPath70)" />
      <path
         id="path71"
         d="M 0,0 -7.28,19.989 H -35.893 V 0 Z m 8.449,-23.201 -4.55,12.494 h -39.792 v -12.494 z"
         style="fill:#a8c4e4;fill-opacity:1;fill-rule:evenodd;stroke:none"
         transform="matrix(1.3333333,0,0,-1.3333333,727.91013,312.446)"
         clip-path="url(#clipPath72)" />
      <path
         id="path73"
         d="m 0,0 h 5.982 c 4.97,0 9.036,-4.067 9.036,-9.036 v -17.445 c 0,-4.97 -4.066,-9.036 -9.036,-9.036 H 0 c -1.682,0 -3.053,1.374 -3.053,3.055 V -3.055 C -3.053,-1.375 -1.682,0 0,0"
         style="fill:#f09870;fill-opacity:1;fill-rule:evenodd;stroke:none"
         transform="matrix(1.3333333,0,0,-1.3333333,773.59893,286.5072)"
         clip-path="url(#clipPath74)" />
      <path
         id="path75"
         d="m 0,0 h 5.982 c 0.7,0 1.273,-0.571 1.273,-1.272 v -28.421 c 0,-0.7 -0.573,-1.272 -1.273,-1.272 H 0 c -0.7,0 -1.271,0.572 -1.271,1.272 V -1.272 C -1.271,-0.571 -0.7,0 0,0"
         style="fill:#688bb7;fill-opacity:1;fill-rule:evenodd;stroke:none"
         transform="matrix(1.3333333,0,0,-1.3333333,773.93747,289.6016)"
         clip-path="url(#clipPath76)" />
      <path
         id="path77"
         d="m 587.708,364.595 h -8.526 v -3.301 h 8.526 z m -8.526,11.957 h 8.526 v -7.406 h -8.526 z"
         style="fill:#90aed3;fill-opacity:1;fill-rule:evenodd;stroke:none"
         transform="matrix(1.3333333,0,0,-1.3333333,0,800)"
         clip-path="url(#clipPath78)" />
      <path
         id="path79"
         d="m 211.325,297.845 h 11.243 v 11.424 h -11.243 z"
         style="fill:#987b51;fill-opacity:1;fill-rule:evenodd;stroke:none"
         transform="matrix(1.3333333,0,0,-1.3333333,0,800)"
         clip-path="url(#clipPath80)" />
      <path
         id="path81"
         d="m 289.071,283.123 h 11.242 v 9.013 h -11.242 z"
         style="fill:#987b51;fill-opacity:1;fill-rule:evenodd;stroke:none"
         transform="matrix(1.3333333,0,0,-1.3333333,0,800)"
         clip-path="url(#clipPath82)" />
      <path
         id="path83"
         d="m 23.971,169.429 h 68.314 v 82.554 H 23.971 Z"
         style="fill:#f3c266;fill-opacity:1;fill-rule:evenodd;stroke:none"
         transform="matrix(1.3333333,0,0,-1.3333333,0,800)"
         clip-path="url(#clipPath84)" />
      <path
         id="path85"
         d="m 88.578,169.429 h 60.519 v 82.554 H 88.578 Z"
         style="fill:#d79540;fill-opacity:1;fill-rule:evenodd;stroke:none"
         transform="matrix(1.3333333,0,0,-1.3333333,0,800)"
         clip-path="url(#clipPath86)" />
      <path
         id="path87"
         d="m 46.865,240.561 h 11.243 v 11.422 H 46.865 Z"
         style="fill:#987b51;fill-opacity:1;fill-rule:evenodd;stroke:none"
         transform="matrix(1.3333333,0,0,-1.3333333,0,800)"
         clip-path="url(#clipPath88)" />
      <path
         id="path89"
         d="M 46.724,251.982 H 97.49 v 58.374 H 46.724 Z"
         style="fill:#f9cc78;fill-opacity:1;fill-rule:evenodd;stroke:none"
         transform="matrix(1.3333333,0,0,-1.3333333,0,800)"
         clip-path="url(#clipPath90)" />
      <path
         id="path91"
         d="m 94.338,251.982 h 38.905 v 58.374 H 94.338 Z"
         style="fill:#e1a04a;fill-opacity:1;fill-rule:evenodd;stroke:none"
         transform="matrix(1.3333333,0,0,-1.3333333,0,800)"
         clip-path="url(#clipPath92)" />
      <path
         id="path93"
         d="m 63.331,302.317 h 10.032 v 8.039 H 63.331 Z"
         style="fill:#987b51;fill-opacity:1;fill-rule:evenodd;stroke:none"
         transform="matrix(1.3333333,0,0,-1.3333333,0,800)"
         clip-path="url(#clipPath94)" />
    </g>
  </g>
</svg>
